<?xml version="1.0" encoding="utf-8"?>
<!-- Generator: Adobe Illustrator 18.0.0, SVG Export Plug-In . SVG Version: 6.00 Build 0)  -->
<svg version="1.1" id="Layer_1" xmlns="http://www.w3.org/2000/svg" xmlns:xlink="http://www.w3.org/1999/xlink" x="0px" y="0px"
	 viewBox="0 -0.1 642.9 560.1" enable-background="new 0 -0.1 642.9 560.1" xml:space="preserve">
<g>
	<g>
		<g>
			<g>
				
					<linearGradient id="SVGID_1_" gradientUnits="userSpaceOnUse" x1="-748.3177" y1="511.8184" x2="-748.3177" y2="556.2773" gradientTransform="matrix(3.952 0 0 3.952 3195.6245 -1638.9781)">
					<stop  offset="0" style="stop-color:#F29104"/>
					<stop  offset="1" style="stop-color:#EC6813"/>
				</linearGradient>
				<path fill="url(#SVGID_1_)" d="M326.4,537.9c-2.3-4.5-5-14-6.8-18.1c-1.8-3.6-7.2-13.6-9.9-16.7c-5.9-6.8-7.2-7.2-9-16.3
					c-3.2-15.4-10.9-42.5-20.3-61.5c-5-9.9-13.1-18.1-20.3-25.3c-6.3-6.3-20.8-16.7-23.5-16.3c-24,4.5-31.2,28-42.5,46.6
					c-6.3,10.4-12.7,19-17.6,29.8c-4.5,9.9-4.1,21.2-11.8,29.8c-7.7,8.6-13.1,18.1-16.7,29.4c-0.9,2.3-2.7,24.9-5,30.3l0,0l35.3-2.3
					c33,2.3,23.5,14.9,74.6,12.2l80.9-2.7l0,0C331.4,549.2,327.8,540.6,326.4,537.9z"/>
			</g>
			<g>
				<g>
					
						<linearGradient id="SVGID_2_" gradientUnits="userSpaceOnUse" x1="-727.2107" y1="414.6952" x2="-727.2106" y2="556.327" gradientTransform="matrix(3.952 0 0 3.952 3195.6245 -1638.9781)">
						<stop  offset="0" style="stop-color:#F29104"/>
						<stop  offset="1" style="stop-color:#EC6813"/>
					</linearGradient>
					<path fill="url(#SVGID_2_)" d="M561.5-0.1H81.4C36.6-0.1,0.5,36.1,0.5,80.8v176.3l0,0c11.8-4.1,28-28.9,33.5-34.8
						c9-10.4,10.9-24,15.4-32.1c10.4-19,12.2-32.6,35.7-32.6c10.9,0,15.4,2.7,22.6,12.7c5,6.8,14,19.9,18.1,28.5
						c5,9.9,12.7,23.1,16.3,25.8c2.7,1.8,5,3.6,7.2,4.5c3.6,1.4,6.8-1.4,9.5-3.2c3.2-2.7,4.5-7.7,7.7-14.9
						c4.5-10.4,9-22.2,11.8-26.7c4.5-7.2,6.3-16.3,11.3-20.3c7.2-6.3,17.2-6.8,19.9-7.2c14.9-3.2,21.7,7.2,28.9,13.6
						c5,4.5,11.3,13.1,16.3,24.4c3.6,9,8.1,17.6,10.4,22.6c1.8,5,6.3,13.1,9,23.1c2.7,8.6,9,15.4,11.8,19.9c0,0,4.1,10.9,27.6,20.8
						c5,2.3,15.4,5.9,21.7,7.7c10.4,3.6,20.3,3.2,33,1.8c9,0,14-13.1,18.1-23.5c2.3-6.3,5-24,6.3-28.9c1.4-5-2.3-8.6,0.9-13.1
						c3.6-5,5.9-5.4,7.7-11.8c4.5-14,29.8-14.5,44.3-14.5c12.2,0,10.4,11.8,30.7,7.7c11.8-2.3,23.1,1.4,35.3,5
						c10.4,2.7,20.3,5.9,26.2,12.7c3.6,4.5,13.1,26.7,3.6,27.6c0.9,0.9,1.8,3.2,3.2,4.1c-2.3,8.6-11.3,2.3-16.7,1.4
						c-6.8-1.4-11.8,0-18.5,3.2c-11.8,5-28.5,4.5-38.9,13.1c-8.6,7.2-8.6,23.1-12.7,32.1c0,0-11.3,28.5-35.3,46.1
						c-6.3,4.5-18.5,15.4-44.8,19.4c-11.8,1.8-23.1,1.8-35.3,1.4c-5.9-0.5-11.8-0.5-17.6-0.5c-3.6,0-15.4-0.5-14.9,0.9l-1.4,3.2
						c0,0.9,0.5,3.6,0.9,4.5c0.5,2.7,0.5,5,0.9,7.2c0,5-0.5,10.4,0,15.4c0.5,10.4,4.5,19.9,5,30.7c0.5,11.8,6.3,24.4,12.2,33.9
						c2.3,3.6,5.4,4.1,6.8,8.6c1.8,5,0,10.9,0.9,16.3c3.2,21.2,9.5,43.9,19,63.3v0.5l0,0c11.8-1.8,24-6.3,39.3-8.6
						c28.5-4.1,67.8-2.3,93.1-4.5c64.2-5.9,99,26.2,156.4,13.1V80.8C642.5,36.1,606.3-0.1,561.5-0.1z M321.9,379.7
						C321.9,378.8,321.9,378.8,321.9,379.7L321.9,379.7z"/>
				</g>
			</g>
			<g>
				
					<linearGradient id="SVGID_3_" gradientUnits="userSpaceOnUse" x1="-786.0129" y1="505.0906" x2="-786.0129" y2="555.2536" gradientTransform="matrix(3.952 0 0 3.952 3195.6245 -1638.9781)">
					<stop  offset="0" style="stop-color:#F29104"/>
					<stop  offset="1" style="stop-color:#EC6813"/>
				</linearGradient>
				<path fill="url(#SVGID_3_)" d="M148.7,453.8c4.5-9.9,7.2-20.8,10.9-30.7c3.6-9.5,9-23.1,18.5-28c-1.4-1.4-19.9-1.8-24.9-2.3
					c-5.4-0.5-10.9-1.4-16.3-2.3c-9.9-1.8-21.2-4.1-30.7-6.3c-5.9-1.4-26.2-8.6-30.3-10.4c-10.4-4.5-17.2-17.6-24.9-16.3
					c-5,0.9-9.9,2.7-13.1,7.7c-2.7,4.1-3.6,11.3-5.4,16.3c-2.3,5.4-5.9,10.9-8.6,16.3c-6.3,9.5-16.7,18.1-21.2,27.6
					c-0.9,2.3-1.4,4.5-2.3,6.8v0.9v35.7V532v9c5.4,0.9,10.9,1.8,16.7,3.6c45.2,12.2,56.1,13.1,100.4,8.1l4.1-0.5l0,0
					c3.2-7.2,5.9-31.2,8.1-38.4c1.8-5.9,4.1-10.4,5-15.8c0.9-5.4,0-10.9-0.5-15.8C133.4,469.2,143.8,464.7,148.7,453.8z"/>
			</g>
		</g>
	</g>
</g>
</svg>
