<?xml version="1.0" encoding="utf-8"?>
<!-- Generator: Adobe Illustrator 18.0.0, SVG Export Plug-In . SVG Version: 6.00 Build 0)  -->
<svg version="1.1" xmlns="http://www.w3.org/2000/svg" xmlns:xlink="http://www.w3.org/1999/xlink" x="0px" y="0px"
	 viewBox="0 19 64 26" enable-background="new 0 19 64 26" xml:space="preserve">
<polygon points="64,45 64,19 56.1,19 53.2,34.3 50.1,19 41.8,19 41.8,45 46.8,45 46.8,25.4 51,45 55.4,45 59.1,25.4 59.1,45 "/>
<path d="M30.9,40.1c-1.1,0-2-0.5-2.6-1.6c-0.4-0.7-0.6-1.6-0.7-2.7l-5.7,0.5c0.1,2.5,0.9,4.5,2.1,6.2c1.2,1.7,3.4,2.5,6.8,2.5
	c1.8,0,3.4-0.4,4.7-1c1.2-0.8,2.1-1.8,2.8-3.1c0.7-1.3,1.1-2.9,1.2-4.4c0-1.4-0.2-2.6-0.7-3.8c-0.5-1-1.2-2-2.5-2.7
	c-1.2-0.8-3.1-1.4-5.7-2.2c-1-0.3-1.7-0.5-2-0.9c-0.4-0.3-0.5-0.6-0.5-1c0-0.5,0.1-1,0.5-1.4c0.4-0.4,0.9-0.5,1.6-0.5
	c0.9,0,1.5,0.3,2,0.8c0.5,0.5,0.9,1.3,1,2.5l5.7-0.4c-0.2-2.6-1-4.6-2.3-5.7c-1.4-1.2-3.2-1.8-5.7-1.8c-2.1,0-3.7,0.4-4.8,1
	c-1.1,0.6-2,1.6-2.6,2.7c-0.6,1.2-0.9,2.3-0.9,3.6c0,2,0.6,3.5,1.7,4.8c1.1,1.2,3,2.2,5.5,3c1.6,0.4,2.6,0.9,3.1,1.4
	c0.4,0.5,0.6,1,0.6,1.7c0,0.7-0.2,1.3-0.7,1.8C32.4,39.8,31.8,40.1,30.9,40.1z"/>
<path d="M13.8,39.8l1,5.2H21l-7.3-26H7.3L0,45h6l1-5.2H13.8z M10.5,25.5l2.1,9.1H8.4L10.5,25.5z"/>
</svg>
