<?xml version="1.0" encoding="utf-8"?>
<!-- Generator: Adobe Illustrator 18.0.0, SVG Export Plug-In . SVG Version: 6.00 Build 0)  -->
<svg version="1.2" baseProfile="tiny" id="Calque_1"
	 xmlns="http://www.w3.org/2000/svg" xmlns:xlink="http://www.w3.org/1999/xlink" x="0px" y="0px" viewBox="0 0 50.1 39.5"
	 xml:space="preserve">
<g>
	<path d="M0,2.9c2-0.1,3.4,0.9,5.2,1.6C3.8,4.6,4.1,5.2,4.5,5.6c1.5,1.5,3,3,4.5,4.6C12.8,3.9,18.3,0.3,25.5,0
		c4.4-0.2,8.4,1.1,12.3,4c-2.5,0.2-4.7,0.4-6.9,0.5c3.2,1.2,6.9,0.1,9.9,2c0,0.2,0,0.4-0.1,0.6c-3.3,0.3-6.6,0.5-9.8,0.8
		c0,0.1,0,0.2,0,0.3c1.3,0.1,2.6,0.3,3.9,0.4c2.2,0.2,4.5,0.3,6.7,0.5c0.5,0,1,0.4,1.5,0.6c0,0.1-0.1,0.3-0.1,0.4
		c-4,0.3-8.1,0.6-12.1,1c0,0.1,0,0.2,0,0.3c4.5,0.4,9,0.8,13.5,1.2c0,0.2,0,0.4,0,0.6c-4.5,0.4-9,0.7-13.6,1.1c0,0.1,0,0.2,0,0.3
		c4.8,0.4,9.7,0.9,14.5,1.3c0,0.2,0,0.4,0,0.6c-4.8,0.4-9.5,0.8-14.3,1.1c0,0.1,0,0.2,0,0.3c4.8,0.4,9.7,0.9,14.5,1.3
		c0,0.1,0,0.3,0,0.4c-4.9,0.4-9.7,0.8-14.6,1.2c0,0.1,0,0.2,0,0.3c4.8,0.4,9.5,0.8,14.3,1.2c0,0.1,0,0.3,0,0.4
		c-4.7,0.7-9.5,0.6-14.3,1.6c4.5,0.4,8.9,0.8,13.4,1.2c0,0.2,0,0.4,0,0.6c-4.1,0.7-8.2,0.6-12.3,1.3c3.5,0.9,7.2,0.7,10.8,1.3
		c-0.2,1.1-1.1,0.9-1.8,1c-1.5,0.2-3.1,0.2-4.7,0.3c0.6,1.1,0.6,1.1,4.3,1.7c-0.2,0.4-0.3,0.7-0.6,1.2c2.1,1,4.1,2.1,6.1,3
		c0.3,0.1,0.8-0.1,1.5-0.2c0.7,0.9,1.6,2.1,2.5,3.2c-0.1,0.1-0.2,0.3-0.3,0.4c-0.6-0.1-1.3-0.1-1.9-0.4c-2.2-1-4.3-2.1-6.4-3.3
		C28.3,27.7,15.8,18.5,4.2,8C3,7,2,5.7,0.9,4.5C0.5,4.1,0.4,3.5,0,2.9z"/>
	<path d="M7.7,14c8.7,6.5,17.3,13,26,19.5c-0.9,0.1-1.9,0.1-2.8,0.2c1.8,0.9,4.1,0.2,5.9,1.4c-4.8,3.9-14.5,5-21.7-0.1
		C7.2,29.5,5.5,20.1,7.7,14z"/>
</g>
</svg>
