<?xml version="1.0" encoding="utf-8"?>
<!-- Generator: Adobe Illustrator 18.0.0, SVG Export Plug-In . SVG Version: 6.00 Build 0)  -->
<svg version="1.2" baseProfile="tiny" id="Calque_1"
	 xmlns="http://www.w3.org/2000/svg" xmlns:xlink="http://www.w3.org/1999/xlink" x="0px" y="0px" viewBox="0 0 240.6 40.6"
	 xml:space="preserve">
<g>
	<path fill="#E34E3D" d="M121.3,0.1c0,9.6,0,9.6-9.7,9.6c-7.7,0-15.4,0.1-23.1,0c-3.4,0-4.9,1.3-4.8,4.7c0.1,3.9,0.1,7.7,0,11.6
		c0,2.9,1.2,4.5,4.2,4.5c6.5,0,13,0,19.6,0c2.3,0,4.1-0.8,4-3.3c-0.1-2.5-2-3.1-4.3-3.1c-2.5,0-5.1-0.2-7.6,0.1
		c-2.8,0.3-3.5-0.9-3.2-3.4c0.1-1,0.1-2.1,0-3.2c-0.2-1.7,0.5-2.3,2.3-2.3c4.5,0.1,9.1-0.1,13.6,0.1c5.2,0.3,9.4,4.5,10.4,10
		c1,5.5-1.9,11.5-6.6,13.8c-0.7,0.3-1.7,0-2,1c-11.2,0-22.4,0-33.6,0c-6.4-3.6-8.6-9.1-8-16.2c0.3-3,0.2-6.1,0-9.1
		c-0.4-6.9,2.3-11.9,8.8-14.7C94.6,0.1,108,0.1,121.3,0.1z"/>
	<path fill="#E34D3D" d="M128.5,40.1c0-7.3,0.1-14.6,0-22c0-2.3,0.7-2.9,2.9-2.9c8.3-0.1,8.3-0.2,8.3,7.9c0,7.4,0,7.4,7.5,7.4
		c5.3,0,10.6-0.1,16,0c3.2,0.1,4.6-1.3,4.6-4.6c-0.1-3.9-0.1-7.7,0-11.6c0.1-3.5-1.5-4.7-4.8-4.7c-10.1,0.1-20.2-0.1-30.3,0.1
		c-3.3,0.1-4.6-0.8-4.1-4.1c0.3-1.8,0-3.7,0-5.6c13.9,0,27.7,0,41.6,0c6.6,2.8,9.2,7.8,8.8,14.8c-0.2,3.6-0.2,7.2,0,10.8
		c0.3,6.9-2.4,11.7-8.8,14.4C156.2,40.1,142.4,40.1,128.5,40.1z"/>
	<path fill="#E45241" d="M224.5,0.1c4.9,0,9.9,0,14.8,0c0.5,0,1.5-0.5,1.2,0.8c-7,5.4-12.5,12.2-18.8,18.2c-0.7,0.7-0.7,1.4,0,2.1
		c6.3,6,11.9,12.8,18.8,18.2c-0.9,1.7-2.4,0.7-3.6,0.7c-4.1,0.1-8.3,0.1-12.4,0.1c-4.4-4.5-8.9-9.1-13.2-13.7c-1.2-1.3-2-1.3-3.2,0
		c-4.4,4.6-8.8,9.1-13.2,13.7c-5.3,0-10.7,0-16,0c5.9-5.9,11.8-11.9,17.8-17.8c1.8-1.7,1.8-2.7,0-4.4c-6-5.8-11.9-11.8-17.8-17.8
		c5.3,0,10.7,0,16,0c4.4,4.5,8.9,9.1,13.2,13.7c1.2,1.3,2,1.3,3.2,0C215.6,9.1,220.1,4.6,224.5,0.1z"/>
	<path fill="#010101" d="M58.9,40.1c-7.2,0-14.4,0-21.6,0c0-13.3,0-26.7,0-40c3.7,0,7.5,0,11.2,0c0,2.9,0,5.8,0,8.8
		c0,6.4,0,6.4,6.3,6.4c6.2,0,10.2,2.7,12,7.9C69.4,30.1,66.5,36.2,58.9,40.1z M51.6,24.1c-1.8-0.2-3.6-0.3-3.1,2.7
		c0.3,1.8-0.8,4.1,2.7,3.8c2.5-0.2,5.2,0,5.2-3.4C56.3,24.5,54.1,23.9,51.6,24.1z"/>
	<path d="M11.7,0.1c0,13.3,0,26.7,0,40C8,40.1,2.9,41.5,1,39.7c-1.9-1.8-0.5-7-0.5-10.6c0-8.7,0.1-17.5-0.1-26.2
		C0.3,0.2,1.2-0.1,3.4,0C6.1,0.2,8.9,0.1,11.7,0.1z"/>
	<path d="M18.9,40.1c0-7.3,0.1-14.7-0.1-22c0-2.3,0.6-2.9,2.9-2.9c8.4-0.1,8.4-0.2,8.4,8.1c0,5.6,0,11.2,0,16.8
		C26.4,40.1,22.6,40.1,18.9,40.1z"/>
	<path d="M30.1,0.1c0,0.5,0,1.1,0,1.6c0,8.6-0.9,9.3-9.6,8.1c-1.5-0.2-1.6-0.9-1.6-2.1c0-2.5,0-5.1,0-7.6
		C22.6,0.1,26.4,0.1,30.1,0.1z"/>
</g>
</svg>
