<?xml version="1.0" encoding="utf-8"?>
<!-- Generator: Adobe Illustrator 18.0.0, SVG Export Plug-In . SVG Version: 6.00 Build 0)  -->
<svg version="1.2" baseProfile="tiny" id="Calque_1"
	 xmlns="http://www.w3.org/2000/svg" xmlns:xlink="http://www.w3.org/1999/xlink" x="0px" y="0px" viewBox="0 0 277.8 276.6"
	 xml:space="preserve">
<g>
	<path fill="#348FA1" d="M138.7,138.6c0,44-0.1,88,0.1,132c0,4.4-0.9,5.9-5.7,5.9c-34-0.2-68-0.2-102,0c-3.9,0-6-1.2-7.7-4.6
		C5.5,237.4-3.2,201.2,1,162.4c4.3-39.3,21.7-72.2,48.6-100.6c24.4-25.7,53.6-44.7,84.8-60.9c5.2-2.7,4.2,1.1,4.2,3.7
		C138.7,49.3,138.7,94,138.7,138.6z"/>
	<path fill="#3790A2" d="M173.9,106.3c4.5,7.1,9,14.2,13.5,21.4c23.5,38.1,47,76.3,70.5,114.4c6.2,10.1,12.4,20.1,18.7,30.1
		c2.4,3.7,1.2,4.4-2.6,4.4c-32.3-0.1-64.7-0.1-97,0c-3.3,0-4.7-1-4.7-4.6c0.1-54.3,0.1-108.6,0.1-163c0-0.8,0.2-1.6,0.3-2.3
		C173.1,106.6,173.5,106.4,173.9,106.3z"/>
</g>
</svg>
