<?xml version="1.0" encoding="utf-8"?>
<!-- Generator: Adobe Illustrator 18.0.0, SVG Export Plug-In . SVG Version: 6.00 Build 0)  -->
<svg version="1.1" id="Calque_1" xmlns="http://www.w3.org/2000/svg" xmlns:xlink="http://www.w3.org/1999/xlink" x="0px" y="0px"
	 viewBox="212.7 144.5 534.6 270.9" enable-background="new 212.7 144.5 534.6 270.9" xml:space="preserve">
<path fill="#6181B6" d="M480,144.5c-147.6,0-267.3,60.6-267.3,135.5S332.4,415.5,480,415.5S747.3,354.8,747.3,280
	S627.6,144.5,480,144.5z M410.5,306.4c-6.4,6-13.5,8.4-21.3,11c-7.8,2.5-17.7,2-29.8,2H332l-7.6,43.8h-31.9L321,214.4h61.4
	c18.5,0,32,5.3,40.4,15c8.5,9.7,11,23.5,7.6,40.8c-1.4,7.2-3.7,13.8-7.1,19.8C420.1,295.9,415.8,301.5,410.5,306.4z M503.7,319.4
	l12.6-63.1c1.4-7.4,0.9-12.9-1.6-15.6c-2.5-2.7-7.8-4.5-15.9-4.5h-25.3l-16.3,83.1h-31.7L454,175h31.7l-7.6,39.4h28.2
	c17.8,0,30,3.6,36.8,9.8c6.7,6.2,8.8,14.7,6.1,28.6l-13.3,66.7H503.7z M679.8,270.5c-1.4,7.2-3.7,13.7-7.1,19.6
	c-3.3,5.9-7.6,11.4-13,16.3c-6.4,6-13.5,8.4-21.3,11c-7.8,2.5-17.7,2-29.8,2h-27.4l-7.6,43.8h-31.9l28.5-148.8h61.4
	c18.5,0,32,5.3,40.4,15C680.6,239.1,683.2,253.1,679.8,270.5z M619.6,236.3h-21.9l-11.9,61.3h19.4c12.9,0,22.5-1.3,28.8-6.1
	c6.3-4.8,10.6-12.4,12.8-23.7c2.1-10.9,1.2-19.4-2.9-23.9C639.9,239.3,631.8,236.2,619.6,236.3L619.6,236.3z M370.3,236.3h-21.9
	l-11.9,61.3H356c12.9,0,22.5-1.3,28.8-6.1c6.3-4.8,10.6-12.4,12.8-23.7c2.1-10.9,1.2-19.4-2.9-23.9
	C390.6,239.3,382.5,236.2,370.3,236.3L370.3,236.3z"/>
</svg>
